<mxfile host="app.diagrams.net" agent="Mozilla/5.0 (Windows NT 10.0; Win64; x64) AppleWebKit/537.36 (KHTML, like Gecko) Chrome/128.0.0.0 Safari/537.36" version="24.7.14" pages="2">
  <diagram name="Página-1" id="gpKVvN9CuKya5Epck6a0">
    <mxGraphModel dx="869" dy="1605" grid="1" gridSize="10" guides="1" tooltips="1" connect="1" arrows="1" fold="1" page="1" pageScale="1" pageWidth="827" pageHeight="1169" math="0" shadow="0">
      <root>
        <mxCell id="0" />
        <mxCell id="1" parent="0" />
        <mxCell id="UAWNQgPJYfu6M1fQTLBm-67" value="" style="endArrow=none;dashed=1;html=1;dashPattern=1 3;strokeWidth=2;rounded=0;" parent="1" edge="1">
          <mxGeometry width="50" height="50" relative="1" as="geometry">
            <mxPoint x="930" y="780" as="sourcePoint" />
            <mxPoint x="930" y="-270" as="targetPoint" />
          </mxGeometry>
        </mxCell>
        <mxCell id="UAWNQgPJYfu6M1fQTLBm-72" style="edgeStyle=orthogonalEdgeStyle;rounded=0;orthogonalLoop=1;jettySize=auto;html=1;" parent="1" source="UAWNQgPJYfu6M1fQTLBm-25" target="UAWNQgPJYfu6M1fQTLBm-71" edge="1">
          <mxGeometry relative="1" as="geometry" />
        </mxCell>
        <mxCell id="UAWNQgPJYfu6M1fQTLBm-25" value="app-clustering" style="whiteSpace=wrap;html=1;align=center;" parent="1" vertex="1">
          <mxGeometry x="505" y="590" width="210" height="80" as="geometry" />
        </mxCell>
        <mxCell id="UAWNQgPJYfu6M1fQTLBm-55" style="edgeStyle=orthogonalEdgeStyle;rounded=0;orthogonalLoop=1;jettySize=auto;html=1;" parent="1" source="UAWNQgPJYfu6M1fQTLBm-46" target="UAWNQgPJYfu6M1fQTLBm-54" edge="1">
          <mxGeometry relative="1" as="geometry" />
        </mxCell>
        <mxCell id="UAWNQgPJYfu6M1fQTLBm-46" value="Seleccion&lt;div&gt;datasets&lt;/div&gt;" style="whiteSpace=wrap;html=1;align=center;" parent="1" vertex="1">
          <mxGeometry x="1110" y="-110" width="190" height="120" as="geometry" />
        </mxCell>
        <mxCell id="UAWNQgPJYfu6M1fQTLBm-49" value="visualizacion" style="whiteSpace=wrap;html=1;align=center;" parent="1" vertex="1">
          <mxGeometry x="1060" y="585" width="180" height="90" as="geometry" />
        </mxCell>
        <mxCell id="UAWNQgPJYfu6M1fQTLBm-58" style="edgeStyle=orthogonalEdgeStyle;rounded=0;orthogonalLoop=1;jettySize=auto;html=1;" parent="1" source="UAWNQgPJYfu6M1fQTLBm-53" target="UAWNQgPJYfu6M1fQTLBm-57" edge="1">
          <mxGeometry relative="1" as="geometry" />
        </mxCell>
        <mxCell id="UAWNQgPJYfu6M1fQTLBm-53" value="prerocesamiento&lt;div&gt;datasets&lt;/div&gt;" style="whiteSpace=wrap;html=1;align=center;" parent="1" vertex="1">
          <mxGeometry x="520" y="-110" width="210" height="90" as="geometry" />
        </mxCell>
        <mxCell id="UAWNQgPJYfu6M1fQTLBm-56" style="edgeStyle=orthogonalEdgeStyle;rounded=0;orthogonalLoop=1;jettySize=auto;html=1;" parent="1" source="UAWNQgPJYfu6M1fQTLBm-54" target="UAWNQgPJYfu6M1fQTLBm-53" edge="1">
          <mxGeometry relative="1" as="geometry" />
        </mxCell>
        <mxCell id="UAWNQgPJYfu6M1fQTLBm-54" value="datasets&lt;div&gt;crudos&lt;/div&gt;" style="whiteSpace=wrap;html=1;align=center;" parent="1" vertex="1">
          <mxGeometry x="870" y="-75" width="100" height="40" as="geometry" />
        </mxCell>
        <mxCell id="UAWNQgPJYfu6M1fQTLBm-63" style="edgeStyle=orthogonalEdgeStyle;rounded=0;orthogonalLoop=1;jettySize=auto;html=1;" parent="1" source="UAWNQgPJYfu6M1fQTLBm-57" target="UAWNQgPJYfu6M1fQTLBm-25" edge="1">
          <mxGeometry relative="1" as="geometry" />
        </mxCell>
        <mxCell id="UAWNQgPJYfu6M1fQTLBm-57" value="datasets&lt;div&gt;preprocesados&lt;/div&gt;" style="whiteSpace=wrap;html=1;align=center;" parent="1" vertex="1">
          <mxGeometry x="560" y="310" width="100" height="40" as="geometry" />
        </mxCell>
        <mxCell id="UAWNQgPJYfu6M1fQTLBm-61" style="edgeStyle=orthogonalEdgeStyle;rounded=0;orthogonalLoop=1;jettySize=auto;html=1;" parent="1" source="UAWNQgPJYfu6M1fQTLBm-59" target="UAWNQgPJYfu6M1fQTLBm-60" edge="1">
          <mxGeometry relative="1" as="geometry" />
        </mxCell>
        <mxCell id="UAWNQgPJYfu6M1fQTLBm-59" value="Seleccion de hyperparametros&lt;div&gt;&lt;span style=&quot;background-color: initial;&quot;&gt;- analizar medicamentos, practicas u ambos&lt;/span&gt;&lt;div&gt;- que medicamentos y/o practicas de interes analizar&lt;/div&gt;&lt;div&gt;- cantidad de clusters&lt;/div&gt;&lt;/div&gt;" style="whiteSpace=wrap;html=1;align=center;" parent="1" vertex="1">
          <mxGeometry x="1080" y="300" width="220" height="130" as="geometry" />
        </mxCell>
        <mxCell id="UAWNQgPJYfu6M1fQTLBm-60" value="hyperparametros" style="whiteSpace=wrap;html=1;align=center;" parent="1" vertex="1">
          <mxGeometry x="840" y="345" width="100" height="40" as="geometry" />
        </mxCell>
        <mxCell id="UAWNQgPJYfu6M1fQTLBm-62" style="edgeStyle=orthogonalEdgeStyle;rounded=0;orthogonalLoop=1;jettySize=auto;html=1;entryX=0.563;entryY=-0.012;entryDx=0;entryDy=0;entryPerimeter=0;" parent="1" source="UAWNQgPJYfu6M1fQTLBm-60" target="UAWNQgPJYfu6M1fQTLBm-25" edge="1">
          <mxGeometry relative="1" as="geometry" />
        </mxCell>
        <mxCell id="UAWNQgPJYfu6M1fQTLBm-64" value="" style="endArrow=none;dashed=1;html=1;dashPattern=1 3;strokeWidth=2;rounded=0;" parent="1" edge="1">
          <mxGeometry width="50" height="50" relative="1" as="geometry">
            <mxPoint x="420" y="100" as="sourcePoint" />
            <mxPoint x="1370" y="100" as="targetPoint" />
          </mxGeometry>
        </mxCell>
        <mxCell id="UAWNQgPJYfu6M1fQTLBm-65" value="&lt;b&gt;DTIC&lt;/b&gt;" style="text;html=1;align=center;verticalAlign=middle;resizable=0;points=[];autosize=1;strokeColor=none;fillColor=none;" parent="1" vertex="1">
          <mxGeometry x="1335" y="50" width="50" height="30" as="geometry" />
        </mxCell>
        <mxCell id="UAWNQgPJYfu6M1fQTLBm-66" value="&lt;b&gt;AUDITORIA MEDICA&lt;/b&gt;" style="text;html=1;align=center;verticalAlign=middle;resizable=0;points=[];autosize=1;strokeColor=none;fillColor=none;" parent="1" vertex="1">
          <mxGeometry x="1260" y="150" width="140" height="30" as="geometry" />
        </mxCell>
        <mxCell id="UAWNQgPJYfu6M1fQTLBm-68" value="FRONTEND&lt;div&gt;(TAL VEZ NO PODAMOS IMPLEMENTAR ESO,&lt;/div&gt;&lt;div&gt;YA QUE REQUIERE ACCESO A SOSUNC)&lt;/div&gt;&lt;div&gt;&lt;br&gt;&lt;/div&gt;&lt;div&gt;(SINO, PODEMOS HACER UN PROTOTIPO DE FRONT).&lt;/div&gt;" style="text;html=1;align=center;verticalAlign=middle;resizable=0;points=[];autosize=1;strokeColor=none;fillColor=none;" parent="1" vertex="1">
          <mxGeometry x="950" y="-290" width="340" height="90" as="geometry" />
        </mxCell>
        <mxCell id="UAWNQgPJYfu6M1fQTLBm-69" value="BACKEND&lt;div&gt;(PROBABLEMENTE&lt;/div&gt;&lt;div&gt;SOLO PODAMOS&lt;/div&gt;&lt;div&gt;IMPLEMENTAR ESO)&lt;/div&gt;" style="text;html=1;align=center;verticalAlign=middle;resizable=0;points=[];autosize=1;strokeColor=none;fillColor=none;" parent="1" vertex="1">
          <mxGeometry x="720" y="-290" width="140" height="70" as="geometry" />
        </mxCell>
        <mxCell id="UAWNQgPJYfu6M1fQTLBm-70" value="Dos dimensiones de analisis: DTIC/auditoria y frontend/backend.&lt;div&gt;&lt;br&gt;&lt;/div&gt;&lt;div&gt;&amp;nbsp;DTIC&amp;nbsp; y auditoria. En DTIC, subiran la primera vez,&lt;div&gt;y a futuro cada vez que necesiten, los dataset que seran necesarios para aplicar&lt;/div&gt;&lt;div&gt;ML. Estos datasets deben tener una estructura predifinda entre los desarrolladores&lt;/div&gt;&lt;div&gt;y DTIC. Para cada aplicacion de la suite se necesitaran un conjunto especifico de&lt;/div&gt;&lt;div&gt;datasets. En principio, el prototipo hecho en la materia solo cuenta con una aplicacion&lt;/div&gt;&lt;/div&gt;&lt;div&gt;para la suite. Aun asi ,se la diseniara de forma modular para fomentar su&lt;/div&gt;&lt;div&gt;escalabilidad.&lt;/div&gt;&lt;div&gt;&lt;br&gt;&lt;/div&gt;&lt;div&gt;Desde auditoria medica, podran consumir las aplicaciones de la suite. Al elegir una aplicacion.&lt;/div&gt;&lt;div&gt;Se les pedira un conjunto de hyperparametros, propios dee cada aplicacion. En el disenio&lt;/div&gt;&lt;div&gt;dimos algunos ejemplo de hyperparametros para la aplicaciones de este prototipo.&lt;/div&gt;&lt;div&gt;&lt;br&gt;&lt;/div&gt;&lt;div&gt;Al elegir los hyperparametros, podran visualizar el analisis estadistico resultante de la&lt;/div&gt;&lt;div&gt;aplicaicion.&amp;nbsp;&lt;/div&gt;" style="text;html=1;align=center;verticalAlign=middle;resizable=0;points=[];autosize=1;strokeColor=none;fillColor=none;" parent="1" vertex="1">
          <mxGeometry x="1390" y="-170" width="520" height="240" as="geometry" />
        </mxCell>
        <mxCell id="UAWNQgPJYfu6M1fQTLBm-73" style="edgeStyle=orthogonalEdgeStyle;rounded=0;orthogonalLoop=1;jettySize=auto;html=1;" parent="1" source="UAWNQgPJYfu6M1fQTLBm-71" target="UAWNQgPJYfu6M1fQTLBm-49" edge="1">
          <mxGeometry relative="1" as="geometry" />
        </mxCell>
        <mxCell id="UAWNQgPJYfu6M1fQTLBm-71" value="resultados&lt;div&gt;(jsons y posiblemente algunos graficos fabricados)&lt;/div&gt;" style="whiteSpace=wrap;html=1;align=center;" parent="1" vertex="1">
          <mxGeometry x="810" y="597.5" width="120" height="65" as="geometry" />
        </mxCell>
      </root>
    </mxGraphModel>
  </diagram>
  <diagram id="R4fpBVGllP7DAC3BVzqt" name="Página-2">
    <mxGraphModel dx="652" dy="327" grid="1" gridSize="10" guides="1" tooltips="1" connect="1" arrows="1" fold="1" page="1" pageScale="1" pageWidth="827" pageHeight="1169" math="0" shadow="0">
      <root>
        <mxCell id="0" />
        <mxCell id="1" parent="0" />
        <mxCell id="tk6lyTTyXTjh0OgjGQEb-1" value="&lt;b&gt;AffiliateHealthcarePathways&lt;/b&gt;&lt;div&gt;&lt;b&gt;_MLApplication&lt;/b&gt;&lt;/div&gt;" style="html=1;whiteSpace=wrap;" vertex="1" parent="1">
          <mxGeometry x="110" y="570" width="210" height="60" as="geometry" />
        </mxCell>
        <mxCell id="tk6lyTTyXTjh0OgjGQEb-2" value="" style="triangle;whiteSpace=wrap;html=1;rotation=-90;" vertex="1" parent="1">
          <mxGeometry x="435" y="436" width="20" height="30" as="geometry" />
        </mxCell>
        <mxCell id="tk6lyTTyXTjh0OgjGQEb-4" value="&lt;b&gt;AffiliateSemesterConsumptions&lt;/b&gt;&lt;div&gt;&lt;b&gt;_MLApplication&lt;/b&gt;&lt;/div&gt;" style="html=1;whiteSpace=wrap;" vertex="1" parent="1">
          <mxGeometry x="340" y="570" width="210" height="60" as="geometry" />
        </mxCell>
        <mxCell id="tk6lyTTyXTjh0OgjGQEb-6" value="" style="endArrow=none;html=1;rounded=0;entryX=0;entryY=0.5;entryDx=0;entryDy=0;" edge="1" parent="1" source="tk6lyTTyXTjh0OgjGQEb-4" target="tk6lyTTyXTjh0OgjGQEb-2">
          <mxGeometry width="50" height="50" relative="1" as="geometry">
            <mxPoint x="490" y="480" as="sourcePoint" />
            <mxPoint x="540" y="430" as="targetPoint" />
          </mxGeometry>
        </mxCell>
        <mxCell id="tk6lyTTyXTjh0OgjGQEb-7" value="" style="endArrow=none;html=1;rounded=0;entryX=0;entryY=0.5;entryDx=0;entryDy=0;exitX=0.5;exitY=0;exitDx=0;exitDy=0;" edge="1" parent="1" source="tk6lyTTyXTjh0OgjGQEb-1" target="tk6lyTTyXTjh0OgjGQEb-2">
          <mxGeometry width="50" height="50" relative="1" as="geometry">
            <mxPoint x="455" y="580" as="sourcePoint" />
            <mxPoint x="455" y="471" as="targetPoint" />
            <Array as="points">
              <mxPoint x="215" y="520" />
              <mxPoint x="445" y="520" />
            </Array>
          </mxGeometry>
        </mxCell>
        <mxCell id="tk6lyTTyXTjh0OgjGQEb-13" value="&lt;div style=&quot;font-weight: 400;&quot;&gt;&amp;lt;&amp;lt; interface &amp;gt;&amp;gt;&lt;/div&gt;MLApplication" style="swimlane;fontStyle=1;align=center;verticalAlign=top;childLayout=stackLayout;horizontal=1;startSize=40;horizontalStack=0;resizeParent=1;resizeParentMax=0;resizeLast=0;collapsible=1;marginBottom=0;whiteSpace=wrap;html=1;" vertex="1" parent="1">
          <mxGeometry x="205" y="210" width="480" height="200" as="geometry" />
        </mxCell>
        <mxCell id="tk6lyTTyXTjh0OgjGQEb-14" value="+ field: type" style="text;strokeColor=none;fillColor=none;align=left;verticalAlign=top;spacingLeft=4;spacingRight=4;overflow=hidden;rotatable=0;points=[[0,0.5],[1,0.5]];portConstraint=eastwest;whiteSpace=wrap;html=1;" vertex="1" parent="tk6lyTTyXTjh0OgjGQEb-13">
          <mxGeometry y="40" width="480" height="26" as="geometry" />
        </mxCell>
        <mxCell id="tk6lyTTyXTjh0OgjGQEb-15" value="" style="line;strokeWidth=1;fillColor=none;align=left;verticalAlign=middle;spacingTop=-1;spacingLeft=3;spacingRight=3;rotatable=0;labelPosition=right;points=[];portConstraint=eastwest;strokeColor=inherit;" vertex="1" parent="tk6lyTTyXTjh0OgjGQEb-13">
          <mxGeometry y="66" width="480" height="8" as="geometry" />
        </mxCell>
        <mxCell id="tk6lyTTyXTjh0OgjGQEb-16" value="&lt;div&gt;+ create_MLApplication(): MLApplication&lt;/div&gt;+ preprocess_raw_dataset(input_directories,output_directories):boolean&lt;div&gt;+ upload_preprocessed_dataset(input_directories,dataset_attribute_names): boolean&lt;/div&gt;&lt;div&gt;+ define_hyperparameters (params_dict): boolean&lt;/div&gt;&lt;div&gt;+ apply_ML():boolean&lt;/div&gt;&lt;div&gt;+ get_results(): data structure of results&lt;/div&gt;&lt;div&gt;+ get_results_visualizations(): data structure of visualizations&lt;/div&gt;" style="text;strokeColor=none;fillColor=none;align=left;verticalAlign=top;spacingLeft=4;spacingRight=4;overflow=hidden;rotatable=0;points=[[0,0.5],[1,0.5]];portConstraint=eastwest;whiteSpace=wrap;html=1;" vertex="1" parent="tk6lyTTyXTjh0OgjGQEb-13">
          <mxGeometry y="74" width="480" height="126" as="geometry" />
        </mxCell>
      </root>
    </mxGraphModel>
  </diagram>
</mxfile>
